<svg width="24" height="25" viewBox="0 0 24 25" fill="none" xmlns="http://www.w3.org/2000/svg">
<path d="M8 4.73389H7.2002C6.08009 4.73389 5.51962 4.73389 5.0918 4.95187C4.71547 5.14362 4.40973 5.44936 4.21799 5.82568C4 6.25351 4 6.81398 4 7.93408V8.73389M8 4.73389H16M8 4.73389V2.73389M16 4.73389H16.8002C17.9203 4.73389 18.4796 4.73389 18.9074 4.95187C19.2837 5.14362 19.5905 5.44936 19.7822 5.82568C20 6.25309 20 6.81288 20 7.9308V8.73389M16 4.73389V2.73389M4 8.73389V17.5341C4 18.6542 4 19.2139 4.21799 19.6418C4.40973 20.0181 4.71547 20.3244 5.0918 20.5161C5.5192 20.7339 6.07899 20.7339 7.19691 20.7339H16.8031C17.921 20.7339 18.48 20.7339 18.9074 20.5161C19.2837 20.3244 19.5905 20.0181 19.7822 19.6418C20 19.2144 20 18.6554 20 17.5375V8.73389M4 8.73389H20M16 16.7339H16.002L16.002 16.7359L16 16.7358V16.7339ZM12 16.7339H12.002L12.002 16.7359L12 16.7358V16.7339ZM8 16.7339H8.002L8.00195 16.7359L8 16.7358V16.7339ZM16.002 12.7339V12.7359L16 12.7358V12.7339H16.002ZM12 12.7339H12.002L12.002 12.7359L12 12.7358V12.7339ZM8 12.7339H8.002L8.00195 12.7359L8 12.7358V12.7339Z" stroke="#201913" stroke-width="2" stroke-linecap="round" stroke-linejoin="round"/>
</svg>
