<svg width="58" height="58" viewBox="0 0 58 58" fill="none" xmlns="http://www.w3.org/2000/svg">
<path fill-rule="evenodd" clip-rule="evenodd" d="M1 29L29 1L57 29L51.2069 34.7931L40.1034 23.6897L29 34.7931L17.8966 23.6897L6.7931 34.7931L1 29ZM17.8966 34.3103L29 45.4138L40.1034 34.3103L45.8965 40.1034L29 57L12.1034 40.1034L17.8966 34.3103ZM29.0001 22.7242L34.3104 17.4138L29.0001 12.1035L23.6898 17.4138L29.0001 22.7242Z" fill="#201913"/>
<path d="M29 1L29.1768 0.823223C29.0791 0.725592 28.9209 0.725592 28.8232 0.823223L29 1ZM1 29L0.823223 28.8232C0.776339 28.8701 0.75 28.9337 0.75 29C0.75 29.0663 0.776339 29.1299 0.823223 29.1768L1 29ZM57 29L57.1768 29.1768C57.2237 29.1299 57.25 29.0663 57.25 29C57.25 28.9337 57.2237 28.8701 57.1768 28.8232L57 29ZM51.2069 34.7931L51.0301 34.9699C51.1277 35.0675 51.286 35.0675 51.3837 34.9699L51.2069 34.7931ZM40.1034 23.6897L40.2802 23.5129C40.1826 23.4152 40.0243 23.4152 39.9267 23.5129L40.1034 23.6897ZM29 34.7931L28.8232 34.9699C28.9209 35.0675 29.0791 35.0675 29.1768 34.9699L29 34.7931ZM17.8966 23.6897L18.0733 23.5129C17.9757 23.4152 17.8174 23.4152 17.7198 23.5129L17.8966 23.6897ZM6.7931 34.7931L6.61633 34.9699C6.71396 35.0675 6.87225 35.0675 6.96988 34.9699L6.7931 34.7931ZM29 45.4138L28.8232 45.5906C28.9209 45.6882 29.0791 45.6882 29.1768 45.5906L29 45.4138ZM17.8966 34.3103L18.0733 34.1336C17.9757 34.0359 17.8174 34.0359 17.7198 34.1336L17.8966 34.3103ZM40.1034 34.3103L40.2802 34.1336C40.1826 34.0359 40.0243 34.0359 39.9267 34.1336L40.1034 34.3103ZM45.8965 40.1034L46.0733 40.2802C46.171 40.1826 46.171 40.0243 46.0733 39.9267L45.8965 40.1034ZM29 57L28.8232 57.1768C28.8701 57.2237 28.9337 57.25 29 57.25C29.0663 57.25 29.1299 57.2237 29.1768 57.1768L29 57ZM12.1034 40.1034L11.9267 39.9267C11.8798 39.9736 11.8534 40.0371 11.8534 40.1034C11.8534 40.1698 11.8798 40.2333 11.9267 40.2802L12.1034 40.1034ZM34.3104 17.4138L34.4872 17.5906C34.5849 17.493 34.5849 17.3347 34.4872 17.2371L34.3104 17.4138ZM29.0001 22.7242L28.8233 22.901C28.921 22.9986 29.0792 22.9986 29.1769 22.901L29.0001 22.7242ZM29.0001 12.1035L29.1769 11.9267C29.0792 11.8291 28.921 11.8291 28.8233 11.9267L29.0001 12.1035ZM23.6898 17.4138L23.513 17.2371C23.4154 17.3347 23.4154 17.493 23.513 17.5906L23.6898 17.4138ZM28.8232 0.823223L0.823223 28.8232L1.17678 29.1768L29.1768 1.17678L28.8232 0.823223ZM57.1768 28.8232L29.1768 0.823223L28.8232 1.17678L56.8232 29.1768L57.1768 28.8232ZM51.3837 34.9699L57.1768 29.1768L56.8232 28.8232L51.0301 34.6163L51.3837 34.9699ZM39.9267 23.8664L51.0301 34.9699L51.3837 34.6163L40.2802 23.5129L39.9267 23.8664ZM29.1768 34.9699L40.2802 23.8664L39.9267 23.5129L28.8232 34.6163L29.1768 34.9699ZM17.7198 23.8664L28.8232 34.9699L29.1768 34.6163L18.0733 23.5129L17.7198 23.8664ZM6.96988 34.9699L18.0733 23.8664L17.7198 23.5129L6.61633 34.6163L6.96988 34.9699ZM0.823223 29.1768L6.61633 34.9699L6.96988 34.6163L1.17678 28.8232L0.823223 29.1768ZM29.1768 45.237L18.0733 34.1336L17.7198 34.4871L28.8232 45.5906L29.1768 45.237ZM39.9267 34.1336L28.8232 45.237L29.1768 45.5906L40.2802 34.4871L39.9267 34.1336ZM46.0733 39.9267L40.2802 34.1336L39.9267 34.4871L45.7198 40.2802L46.0733 39.9267ZM29.1768 57.1768L46.0733 40.2802L45.7198 39.9267L28.8232 56.8232L29.1768 57.1768ZM11.9267 40.2802L28.8232 57.1768L29.1768 56.8232L12.2802 39.9267L11.9267 40.2802ZM17.7198 34.1336L11.9267 39.9267L12.2802 40.2802L18.0733 34.4871L17.7198 34.1336ZM34.1337 17.2371L28.8233 22.5474L29.1769 22.901L34.4872 17.5906L34.1337 17.2371ZM28.8233 12.2803L34.1337 17.5906L34.4872 17.2371L29.1769 11.9267L28.8233 12.2803ZM23.8665 17.5906L29.1769 12.2803L28.8233 11.9267L23.513 17.2371L23.8665 17.5906ZM29.1769 22.5474L23.8665 17.2371L23.513 17.5906L28.8233 22.901L29.1769 22.5474Z" fill="#201913"/>
</svg>
