<svg width="48" height="48" viewBox="0 0 48 48" fill="none" xmlns="http://www.w3.org/2000/svg">
<path fill-rule="evenodd" clip-rule="evenodd" d="M0 24L4.17391 19.8261L8.34783 24L4.17391 28.1739L0 24ZM13.5652 18.7826L9.3913 14.6087L24 0L38.6087 14.6087L34.4348 18.7826L24 29.2174L13.5652 18.7826ZM39.6522 24L43.8261 28.1739L48 24L43.8261 19.8261L39.6522 24ZM24 8.34783L17.7391 14.6087L24 20.8696L30.2609 14.6087L24 8.34783Z" fill="#201913"/>
<path fill-rule="evenodd" clip-rule="evenodd" d="M9.3913 33.3913L13.5652 29.2174L19.8261 35.4783V43.8261L9.3913 33.3913ZM28.1739 43.8261L38.6087 33.3913L34.4348 29.2174L28.1739 35.4783V43.8261Z" fill="#201913"/>
</svg>
