<svg width="57" height="50" viewBox="0 0 57 50" fill="none" xmlns="http://www.w3.org/2000/svg">
<g clip-path="url(#clip0_1_303)">
<path d="M47.9993 35.8038L8.93746 13.2286C8.25448 12.8339 7.37998 13.0644 6.98424 13.7436C6.58849 14.4227 6.82134 15.2933 7.50432 15.688L46.5662 38.2633C47.2492 38.658 48.1237 38.4274 48.5194 37.7483C48.9152 37.0691 48.6823 36.1986 47.9993 35.8038Z" fill="white"/>
<path d="M29.6095 13.1075L8.23857 13.056C7.45044 13.0541 6.81109 13.6903 6.81071 14.4771C6.81033 15.2638 7.44906 15.9031 8.2372 15.905L29.6081 15.9565C30.3962 15.9584 31.0354 15.3221 31.0357 14.5354C31.0361 13.7487 30.3976 13.1094 29.6095 13.1075Z" fill="white"/>
<path d="M20.168 32.2545L9.47021 13.7539C9.07569 13.0716 8.20228 12.8355 7.51955 13.2264C6.83681 13.6174 6.60326 14.4874 6.99778 15.1697L17.6956 33.6702C18.0901 34.3525 18.9633 34.5887 19.646 34.1978C20.3288 33.8069 20.5625 32.9368 20.168 32.2545Z" fill="white"/>
</g>
<defs>
<clipPath id="clip0_1_303">
<rect width="29.8379" height="47.9747" fill="white" transform="translate(0 25.8408) rotate(-60)"/>
</clipPath>
</defs>
</svg>
