<svg width="44" height="43" viewBox="0 0 44 43" fill="none" xmlns="http://www.w3.org/2000/svg">
<path d="M2.65114 41.8913C1.36373 41.5197 0.34189 40.3916 0.071311 39.0432C0.0105072 38.7402 -0.0107604 32.8602 0.00501468 20.7306L0.0283111 2.86431L0.300441 2.2555C0.611082 1.56046 1.14716 0.900628 1.66009 0.582002C2.41946 0.110271 2.68443 0.0558647 4.49517 0.000161488L39.5018 0C41.3159 0.0557385 41.5803 0.110055 42.3399 0.581786C42.8529 0.900342 43.3889 1.56025 43.6996 2.25528L43.9717 2.86415L43.995 20.7304C44.0107 32.8601 43.9897 38.74 43.9287 39.043C43.6528 40.4182 42.5521 41.601 41.253 41.9184C40.6615 42.0631 3.15477 42.0373 2.65114 41.8913ZM41.1768 39.9998C41.5609 39.8125 41.9366 39.4143 42.1133 39.0071C42.2384 38.7189 42.254 37.3162 42.2746 24.4907L42.2975 10.2934H22.0015H1.70536L1.70901 24.2629C1.71107 31.9461 1.74449 38.4062 1.7833 38.6188C1.91522 39.3415 2.44198 39.9187 3.12528 40.0893C3.33438 40.1415 10.765 40.1694 22.172 40.1609C39.1659 40.1468 40.9034 40.1324 41.1768 39.9998ZM42.2948 6.10483C42.2948 3.29092 42.2491 3.0148 41.6884 2.43653C41.4291 2.16912 41.1668 1.9882 40.9887 1.95395C40.832 1.9222 40.0482 1.91128 39.2469 1.92574L30.7285 1.90808L18.4297 1.90819L7.20993 1.90841C2.58733 1.90841 2.74979 1.88726 2.18945 2.54526C1.7654 3.04282 1.70519 3.48553 1.70519 6.10601V8.3804H22H42.2948V6.10483Z" fill="black"/>
<path d="M22.0139 31.7354C25.9044 31.7354 29.0583 28.3922 29.0583 24.2683C29.0583 20.1443 25.9044 16.8012 22.0139 16.8012C18.1234 16.8012 14.9695 20.1443 14.9695 24.2683C14.9695 28.3922 18.1234 31.7354 22.0139 31.7354Z" fill="black" stroke="black" stroke-width="2"/>
<path d="M20.5439 27.9855C20.4273 27.9131 20.3949 27.854 20.2165 27.3887C19.8701 26.4852 19.487 25.7999 19.0939 25.3808C18.9341 25.2104 18.7224 25.0474 18.5776 24.9832C18.5301 24.9622 18.4913 24.9398 18.4913 24.9334C18.4913 24.9166 18.6897 24.7145 18.7678 24.6517C19.0816 24.3998 19.541 24.3295 19.8418 24.4874C20.1423 24.6451 20.4986 25.1493 20.8287 25.8839C20.9024 26.048 20.9665 26.1821 20.9711 26.1821C20.9757 26.182 21.0097 26.1279 21.0465 26.0617C21.2553 25.6866 21.6785 25.0485 22.0289 24.5803C23.291 22.8939 24.8399 21.4493 26.2866 20.6094L26.4163 20.5341L26.4073 20.6201C26.3804 20.8777 26.4047 20.8364 26.1603 21.0389C24.9171 22.0687 23.8713 23.2789 22.9738 24.7263C22.5592 25.395 22.2294 26.0057 21.8136 26.875C21.6714 27.1723 21.5499 27.4155 21.5437 27.4156C21.5375 27.4157 21.4005 27.5201 21.2392 27.6477C21.0779 27.7753 20.9024 27.9045 20.8491 27.9348C20.7418 27.9959 20.5988 28.0196 20.5439 27.9855Z" fill="white"/>
</svg>
