<svg width="70" height="71" viewBox="0 0 70 71" fill="none" xmlns="http://www.w3.org/2000/svg">
<path d="M31.2234 70.0548C19.0284 68.5613 8.76201 61.313 3.50888 50.4879C-2.56897 37.9633 -0.643306 23.1105 8.4487 12.3862C15.6583 3.88224 27.4227 -0.813724 38.4856 0.396245C50.7183 1.73425 61.1139 9.01233 66.4259 19.9578C70.4392 28.2274 71.0554 37.5389 68.167 46.2736C64.1002 58.5725 53.4646 67.6103 40.4909 69.7923C38.4302 70.1386 33.1349 70.2895 31.2234 70.0548ZM40.3699 67.1742C43.8712 66.5322 47.3294 65.3557 50.1328 63.8522C51.7569 62.9812 54.6266 61.1069 54.6251 60.9181C54.6244 60.8212 38.0458 51.1793 26.1356 44.3492L25.2293 43.8294L25.2777 55.0195L25.3261 66.2097L27.4477 66.7221C28.6146 67.004 30.2575 67.3172 31.0986 67.4183C33.1632 67.6665 38.4436 67.5272 40.3699 67.1742ZM22.5267 31.3298C22.4789 31.2807 18.1473 33.7191 12.9004 36.745L3.36069 42.2467L3.46251 42.8086C3.66119 43.9047 4.86729 47.3068 5.65001 48.979C8.78315 55.6724 14.4225 61.3535 21.0197 64.4626L22.5175 65.1684L22.5653 48.2924C22.5917 39.0107 22.5744 31.3774 22.5267 31.3298ZM58.3943 57.5586C62.9038 52.8288 65.7019 47.2468 66.9134 40.5642C67.2561 38.6737 67.4321 34.0617 67.23 32.2686L67.0765 30.9065L52.4737 39.3376C44.4422 43.9746 37.8492 47.834 37.8225 47.914C37.7717 48.0666 56.4386 58.9638 56.8012 58.9932C56.9163 58.9994 57.6331 58.3572 58.3943 57.5586ZM17.603 31.0165C25.609 26.4027 32.1595 22.5739 32.1595 22.5081C32.1595 22.38 13.5418 11.5664 13.164 11.4748C12.8974 11.4086 10.525 13.8596 9.26787 15.4976C5.03773 21.0091 2.59148 28.1591 2.58335 35.0355C2.58073 37.2564 2.76157 39.5489 2.93262 39.4626C2.99529 39.4319 9.59686 35.6302 17.603 31.0165ZM65.705 28.6917C66.7352 28.112 66.7349 28.1763 65.7252 25.1192C63.2038 17.4823 57.9716 11.0773 50.9751 7.06317C50.1513 6.59063 48.9929 5.99129 48.4008 5.73154L47.3243 5.25899V22.2845V39.3102L56.0769 34.2471C60.8909 31.4625 65.2236 28.9626 65.705 28.6917ZM44.5645 4.30331C44.4864 4.23221 43.4958 3.95762 42.3631 3.69347C34.7429 1.91841 26.5584 2.97035 19.8028 6.59333C18.176 7.46584 15.3085 9.33917 15.3116 9.52751C15.3127 9.59799 16.3026 10.223 17.5114 10.9159C18.7202 11.6088 25.3118 15.4136 32.1595 19.3711L44.6098 26.5666L44.6582 15.5C44.6845 9.41328 44.6421 4.3749 44.5645 4.30331Z" fill="white"/>
</svg>
