<svg width="62" height="49" viewBox="0 0 62 49" fill="none" xmlns="http://www.w3.org/2000/svg">
<path d="M5.17156 47.9137C2.77938 47.3187 1.0068 45.6516 0.239765 43.2752C0.0129401 42.5724 0 41.7642 0 28.2951C0 14.7067 0.0112698 14.0268 0.244116 13.377C0.870398 11.6302 2.03083 10.2148 3.47461 9.43697C4.2231 9.03349 5.93278 8.54866 6.60569 8.54866H6.97602L6.97887 7.58921C6.98228 6.44873 7.23698 5.82033 7.92992 5.24268C8.19023 5.0256 8.62484 4.78944 8.89574 4.71823C9.53544 4.54949 14.0657 4.54949 14.7054 4.71823C15.2831 4.8707 16.0325 5.45926 16.3194 5.98615C16.4309 6.19068 16.5599 6.60527 16.6061 6.90737L16.6902 7.45671L18.3854 5.06238C19.893 2.93291 20.1811 2.59647 20.9899 2.02053C21.522 1.64169 22.3066 1.23066 22.8806 1.03009L23.8619 0.6875H30.5771H37.2923L38.2736 1.03009C38.8476 1.23043 39.6322 1.64174 40.1643 2.02053C40.988 2.60706 41.2583 2.92875 43.0317 5.43376C44.1087 6.95489 45.1355 8.27609 45.3136 8.36971C45.5709 8.50497 46.5916 8.54075 50.2782 8.54447C54.4713 8.54842 55.0165 8.57238 55.9311 8.79457C58.3672 9.38617 60.1395 11.0378 60.9145 13.4389C61.1413 14.1416 61.1542 14.9481 61.1542 28.3571C61.1542 41.766 61.1415 42.5726 60.9145 43.2752C60.3598 44.9938 59.158 46.4806 57.6796 47.2771C57.2746 47.4951 56.4878 47.7844 55.9311 47.9196C54.9386 48.1608 54.4443 48.1655 30.5236 48.1585C6.8884 48.1539 6.09867 48.1447 5.17156 47.9137ZM56.0358 45.095C57.0407 44.6253 57.7159 43.9305 58.0998 42.9712C58.3422 42.3655 58.3509 41.8626 58.3509 28.357C58.3509 14.8514 58.342 14.3484 58.0998 13.7428C57.7161 12.7838 57.0406 12.0887 56.0362 11.6189L55.1626 11.2103L50.0089 11.1485C44.3436 11.0807 44.4333 11.0923 43.3426 10.272C43.0284 10.0359 42.0821 8.82645 40.8918 7.14016C37.9632 2.9912 38.7552 3.2871 30.5771 3.2871H24.2531L23.515 3.63111C23.1091 3.8203 22.5896 4.15461 22.3605 4.37387C22.1315 4.59328 21.1295 5.923 20.1339 7.32904C18.2586 9.97755 17.8746 10.3911 16.8859 10.8275C16.3303 11.073 16.0257 11.0897 11.1454 11.1483L5.99165 11.21L5.11813 11.6187C4.11369 12.0884 3.43825 12.7835 3.05447 13.7425C2.81208 14.3481 2.80346 14.8511 2.80346 28.3567C2.80346 41.78 2.81324 42.3685 3.05025 42.9604C3.53587 44.1738 4.56607 45.0473 5.92367 45.3967C6.38922 45.5166 11.8432 45.545 30.8407 45.5269L55.1617 45.5037L56.0358 45.095ZM28.0521 42.7136C21.4979 41.7357 16.0986 37.4096 14.0871 31.5244C13.4187 29.5689 13.2998 28.7796 13.3024 26.3143C13.3053 23.4811 13.6766 21.7979 14.8147 19.4591C17.241 14.4729 22.0547 11.0076 27.8269 10.0919C29.8729 9.76747 32.7387 9.88645 34.7497 10.3801C39.2604 11.4869 42.8564 13.9777 45.3296 17.7084C46.2547 19.1038 46.9201 20.592 47.4338 22.4144C47.8166 23.7729 47.8354 23.9517 47.8425 26.3142C47.8494 28.6087 47.8239 28.8874 47.4975 30.1153C47.0342 31.857 46.5105 33.1229 45.6894 34.4854C43.194 38.6262 39.1248 41.4653 34.1501 42.5363C33.0763 42.7673 29.1736 42.881 28.0521 42.7136ZM32.862 40.0598C39.0981 39.0995 43.9778 34.4664 44.9893 28.5455C45.9849 22.7175 42.8028 16.7381 37.2924 14.0824C35.1792 13.0639 33.5574 12.6554 31.2291 12.5549C22.6382 12.1844 15.6415 18.8261 16.0172 26.9951C16.1126 29.0696 16.526 30.5773 17.5279 32.5044C20.3682 37.9673 26.5788 41.0274 32.862 40.0598ZM29.3384 37.5178C25.3 37.0916 21.811 34.7913 20.0432 31.3901C19.1038 29.5827 18.7879 28.2694 18.8074 26.2524C18.867 20.0767 24.0629 15.2005 30.5771 15.207C33.504 15.2099 36.0405 16.0788 38.1849 17.8131C40.9072 20.0147 42.3586 23.0275 42.3398 26.4381C42.3231 29.4648 41.1369 32.1882 38.9178 34.2952C36.4355 36.652 32.7812 37.8814 29.3384 37.5178ZM32.6634 34.7258C35.2061 34.1588 37.5182 32.397 38.6659 30.1521C39.322 28.8689 39.57 27.8329 39.5723 26.365C39.5777 23.0373 37.6879 20.1502 34.5541 18.6987C33.2061 18.0743 32.1126 17.8375 30.5771 17.8375C29.0447 17.8375 27.9511 18.0736 26.6002 18.6963C24.2357 19.786 22.3802 21.9812 21.783 24.3953C21.5278 25.4268 21.5278 27.3255 21.783 28.357C22.526 31.3605 25.1186 33.8876 28.2582 34.6685C29.4421 34.9632 31.4807 34.9899 32.6634 34.7258ZM29.1132 32.1261C28.7024 32.0317 28.0586 31.8063 27.6825 31.6252C26.8071 31.2041 25.4936 29.9582 25.0514 29.1297C24.676 28.4264 24.3233 27.1696 24.3202 26.5247C24.3157 25.5573 25.1951 24.8613 26.074 25.1367C26.7236 25.3403 26.937 25.6534 27.1244 26.6782C27.3148 27.7189 27.6185 28.2713 28.3234 28.859C28.9166 29.3535 29.4254 29.558 30.3271 29.6641C31.199 29.7668 31.5892 29.9895 31.8211 30.5164C32.0769 31.0975 31.8632 31.762 31.3189 32.077C30.8353 32.3569 30.1796 32.3715 29.1132 32.1261ZM13.8869 7.86774V7.18683H11.8006H9.71428V7.86774V8.54866H11.8006H13.8869V7.86774Z" fill="white"/>
</svg>
