<svg width="38" height="34" viewBox="0 0 38 34" fill="none" xmlns="http://www.w3.org/2000/svg">
<g clip-path="url(#clip0_1_211)">
<path d="M18.5286 33.8955C18.4142 33.8365 16.9417 32.6242 15.2564 31.2015C13.5712 29.7787 11.2954 27.8599 10.199 26.9375C9.10263 26.0151 7.76026 24.8553 7.21597 24.3601C3.39914 20.8879 0.926916 17.0201 0.183163 13.3574C-0.0418431 12.2493 -0.0634624 10.1213 0.140073 9.11924C0.992508 4.92291 3.66279 1.78767 7.44131 0.546696C8.69871 0.133732 9.34291 0.0296149 10.6503 0.0279622C11.3472 0.0270999 12.0281 0.0678612 12.3428 0.129659C13.6099 0.377567 14.8775 0.907756 16.0657 1.68712C16.6793 2.0896 18.3691 3.65564 18.8017 4.22273L19 4.48287L19.2028 4.22273C19.6068 3.70493 20.8562 2.48832 21.4277 2.05624C23.3707 0.587155 25.4719 -0.0953327 27.7258 0.010693C28.7448 0.0584782 29.5107 0.203637 30.558 0.54708C34.3356 1.78565 37.0073 4.92218 37.8599 9.1194C38.0635 10.1215 38.0418 12.2495 37.8168 13.3575C37.0896 16.9391 34.6465 20.8091 31.0018 24.1534C29.7033 25.3447 29.0661 25.896 26.8231 27.7689C25.7268 28.6843 23.6513 30.4299 22.211 31.6479C20.7706 32.8659 19.5075 33.8942 19.404 33.9331C19.1329 34.0347 18.7687 34.0191 18.5286 33.8955ZM20.0155 30.575C20.5533 30.1192 22.4489 28.5258 24.2279 27.0341C28.2865 23.6309 29.0671 22.9402 30.5116 21.4737C32.3759 19.5809 33.5146 18.0432 34.4594 16.1424C35.0682 14.9175 35.3024 14.2752 35.5612 13.1209C35.7882 12.1081 35.8066 10.3039 35.5996 9.34697C34.8452 5.85909 32.5137 3.3296 29.2511 2.4593C28.5984 2.28505 28.3802 2.26313 27.3121 2.26457C26.2185 2.2659 26.0469 2.2861 25.4342 2.46862C23.4673 3.06004 21.7419 4.41447 20.3601 6.45156C19.68 7.45429 19.5147 7.59297 19 7.59297C18.4982 7.59297 18.3131 7.44858 17.7588 6.62502C16.2679 4.40969 14.6129 3.08511 12.5646 2.46785C11.951 2.28282 11.7851 2.26525 10.6879 2.26561C9.62719 2.26597 9.39708 2.29073 8.74888 2.46067C3.98574 3.7217 1.23688 8.71111 2.57151 13.673C2.83181 14.6408 3.07716 15.2591 3.62999 16.3406C4.52081 18.0833 5.70102 19.6575 7.4491 21.4347C8.85077 22.8596 9.65239 23.5689 13.6968 26.9626C15.4758 28.4553 17.3883 30.064 17.9469 30.5376C18.5054 31.0111 18.9793 31.3997 19 31.4011C19.0207 31.4025 19.4777 31.0308 20.0155 30.575Z" fill="black"/>
</g>
<defs>
<clipPath id="clip0_1_211">
<rect width="38" height="34" fill="white"/>
</clipPath>
</defs>
</svg>
