<svg width="95" height="101" viewBox="0 0 95 101" fill="none" xmlns="http://www.w3.org/2000/svg">
<path d="M23.1701 24.5676C21.1643 26.6938 19.2319 28.8952 18.9536 29.4956C18.4462 30.5906 18.3578 32.1415 18.7301 33.4179L19.0346 34.4666L23.8381 39.6394L28.6441 44.8097L31.9877 65.6969L35.3313 86.5791L38.7652 90.219L42.1992 93.8591L42.8556 93.9145L43.5121 93.9651L55.6047 81.1469C61.1966 82.069 67.1157 80.2584 71.4142 75.702C75.7127 71.1455 77.4209 64.8713 76.5509 58.9439L88.6459 46.1232L88.5935 45.4274L88.5436 44.7291L85.1025 41.0816L81.6638 37.4365L61.9423 33.8898L42.2207 30.338L40.0115 27.9962L37.7998 25.6519L35.8142 23.4915L34.1591 21.8429C32.6727 20.359 32.4038 20.157 31.5194 19.8616C30.324 19.4618 28.8573 19.5562 27.8214 20.096C27.2551 20.391 25.176 22.4414 23.1701 24.5676ZM25.1984 26.7332C29.2607 22.4271 29.4298 22.2966 30.561 22.7025C31.1046 22.897 31.7036 23.4855 35.3101 27.3634L39.4362 31.8024L34.718 36.8036L29.9951 41.8099L25.8214 37.4668C21.2377 32.687 21.0778 32.4649 21.3767 31.2379C21.5079 30.6979 21.9644 30.1613 25.1984 26.7332ZM41.8997 33.3301L59.8378 36.5441C69.7038 38.312 77.8237 39.7985 77.8803 39.8488C77.9317 39.8987 68.9144 49.5547 57.8308 61.3033C46.7473 73.0519 37.6534 82.6375 37.6216 82.6038C37.5877 82.5716 37.3765 81.3823 37.1484 79.9646L36.737 77.3858C36.737 77.3858 36.1489 73.1388 36.1401 73.1787C36.1539 73.1348 34.9861 66.4724 33.731 58.6463L31.4481 44.4191L36.6751 38.8733L41.8997 33.3301ZM38.6846 85.8682L59.8449 63.4383L81.0052 41.0084L83.1454 43.2771L85.2857 45.5458L64.1254 67.9757L42.9652 90.4056L40.8249 88.1369L38.6846 85.8682Z" fill="white"/>
</svg>
