<svg width="42" height="45" viewBox="0 0 42 45" fill="none" xmlns="http://www.w3.org/2000/svg">
<circle cx="21" cy="21" r="19.5" fill="#D9D9D9" stroke="black" stroke-width="3"/>
<path d="M22.3516 29.3945H19.3281C19.2109 29.3945 19.1523 29.3359 19.1523 29.2188V22.7676H14.0371C13.8965 22.7676 13.8262 22.709 13.8262 22.5918V19.7441C13.8262 19.7207 13.8438 19.6797 13.8789 19.6211C13.9141 19.5625 13.9668 19.5332 14.0371 19.5332H19.1523V12.9766C19.1523 12.9297 19.2109 12.9062 19.3281 12.9062H22.3516C22.457 12.9062 22.5098 12.9297 22.5098 12.9766V19.5332H27.8711C27.9883 19.5332 28.0469 19.6035 28.0469 19.7441V22.5918C28.0469 22.709 27.9883 22.7676 27.8711 22.7676H22.5098V29.2188C22.5098 29.3359 22.457 29.3945 22.3516 29.3945Z" fill="black"/>
</svg>
