<svg width="40" height="40" viewBox="0 0 40 40" fill="none" xmlns="http://www.w3.org/2000/svg">
<path d="M2.5 15.1667C2.5 10.7329 2.5 8.51604 3.36287 6.82258C4.12186 5.33296 5.33296 4.12186 6.82258 3.36287C8.51604 2.5 10.7329 2.5 15.1667 2.5H24.8333C29.2671 2.5 31.484 2.5 33.1774 3.36287C34.667 4.12186 35.8781 5.33296 36.6371 6.82258C37.5 8.51604 37.5 10.7329 37.5 15.1667V24.8333C37.5 29.2671 37.5 31.484 36.6371 33.1774C35.8781 34.667 34.667 35.8781 33.1774 36.6371C31.484 37.5 29.2671 37.5 24.8333 37.5H15.1667C10.7329 37.5 8.51604 37.5 6.82258 36.6371C5.33296 35.8781 4.12186 34.667 3.36287 33.1774C2.5 31.484 2.5 29.2671 2.5 24.8333V15.1667Z" fill="#E6001F"/>
<path d="M8.75 28.75C8.75 28.75 16.5259 10.0049 16.5074 10H16.5074C16.5074 10 16.5074 10 16.5074 10H22.4126L31.25 28.75L24.5752 28.75C24.5801 28.7599 19.5703 17.2454 19.5075 17.1296C19.4966 17.23 16.1855 24.9364 16.1455 24.9459H19.7138C19.6976 24.9654 21.2653 28.7142 21.2653 28.75L8.75 28.75Z" fill="white"/>
</svg>
