<svg width="40" height="24" viewBox="0 0 40 24" fill="none" xmlns="http://www.w3.org/2000/svg">
<g clip-path="url(#clip0_485_335)">
<path d="M11.3157 8.68422L11.5789 9.86843C11.5789 10.2632 11.7105 10.5263 11.9736 10.9211V11.1842L11.842 11.579L10.921 12.1053L10.6578 12.2369L10.2631 12.1053L9.73678 11.4474L9.34204 10.6579C8.28941 11.8421 6.97362 12.5 5.52625 12.5C4.34204 12.5 3.42099 12.1053 2.89467 11.4474C2.23678 10.9211 1.84204 10 1.84204 8.94738C1.84204 7.89474 2.23678 6.97369 3.02625 6.3158C3.81573 5.52632 4.86836 5.26317 6.31572 5.26317C7.29441 5.25781 8.26894 5.39071 9.21046 5.6579V4.73685C9.21046 3.68422 8.9473 3.02632 8.55257 2.63159C8.15783 2.10527 7.49994 1.97369 6.4473 1.97369L4.99994 2.10527C4.36681 2.26692 3.75011 2.48717 3.15783 2.76317H2.89467C2.76309 2.76317 2.63151 2.63159 2.63151 2.36843V1.71053L2.76309 1.3158C2.76309 1.18422 2.89467 1.05264 3.15783 1.05264L4.73678 0.394745L6.84204 0.131587C8.42099 0.131587 9.47362 0.526324 10.2631 1.18422C10.921 1.97369 11.3157 3.02632 11.3157 4.47369V8.68422ZM6.05257 10.7895L7.36836 10.5263C7.89467 10.3947 8.28941 10 8.68415 9.60527L9.07888 8.8158L9.21046 7.63159V7.10527C8.38985 6.92276 7.55109 6.83447 6.71046 6.84211C5.92099 6.84211 5.26309 6.97369 4.73678 7.36843C4.34204 7.63159 4.21046 8.1579 4.21046 8.8158C4.21046 9.47369 4.34204 9.86843 4.6052 10.2632C4.99994 10.5263 5.39467 10.7895 6.05257 10.7895ZM16.5789 12.1053L16.0526 11.9737L15.7894 11.579L12.7631 1.3158L12.6315 0.789482L12.8947 0.526324H14.2105L14.7368 0.657903L14.9999 1.18422L17.2368 9.86843L19.2105 1.18422L19.4736 0.657903L19.9999 0.526324H21.0526L21.5789 0.657903L21.842 1.18422L23.9473 10L26.1841 1.18422L26.4473 0.657903L26.9736 0.526324H28.1578C28.421 0.526324 28.5526 0.657903 28.5526 0.789482V1.05264L28.421 1.3158L25.2631 11.579L24.9999 12.1053L24.4736 12.2369H23.2894L22.7631 12.1053L22.6315 11.579L20.5263 3.02632L18.5526 11.4474L18.2894 11.9737L17.7631 12.1053H16.5789ZM33.5526 12.5C32.3259 12.4907 31.1151 12.2217 29.9999 11.7105L29.6052 11.3158L29.4736 11.0526V10.3947C29.4736 10.1316 29.6052 10 29.7368 10H29.9999L30.3947 10.1316C31.3428 10.5707 32.3761 10.7954 33.421 10.7895C34.2105 10.7895 34.8684 10.5263 35.2631 10.2632C35.7894 10 35.921 9.60527 35.921 9.07896L35.6578 8.1579L34.342 7.50001L32.3684 6.84211C31.4473 6.57896 30.6578 6.05264 30.2631 5.52632C30.0074 5.19137 29.8214 4.80862 29.7159 4.40064C29.6104 3.99266 29.5877 3.5677 29.649 3.1508C29.7103 2.73389 29.8544 2.33347 30.0729 1.97313C30.2913 1.61278 30.5797 1.29981 30.921 1.05264L32.2368 0.394745C33.0819 0.105161 33.9826 0.0150917 34.8684 0.131587C35.4017 0.233447 35.9288 0.365234 36.4473 0.526324L36.9736 0.789482L37.3684 1.05264L37.4999 1.57896V2.10527C37.4999 2.50001 37.3684 2.63159 37.2368 2.63159L36.7105 2.36843C35.921 2.10527 35.1315 1.97369 34.2105 1.97369C33.421 1.97369 32.7631 1.97369 32.3684 2.23685C31.9736 2.50001 31.842 2.89475 31.842 3.42106C31.842 3.8158 31.9736 4.07896 32.2368 4.34211C32.4999 4.60527 32.8947 4.86843 33.6841 5.13159L35.5262 5.6579C36.4473 6.05264 37.1052 6.44738 37.4999 6.97369C37.8947 7.50001 38.1578 8.1579 38.1578 8.8158L37.7631 10.3947L36.842 11.4474C36.4473 11.8421 35.921 12.1053 35.3947 12.2369L33.5526 12.5Z" fill="#252F3E"/>
<path fill-rule="evenodd" clip-rule="evenodd" d="M36.0527 18.9474C30.6852 22.5323 24.2737 24.2204 17.8368 23.7436C11.3999 23.2668 5.30705 20.6524 0.526379 16.3158C6.32703e-05 15.9211 0.3948 15.5263 0.789537 15.7895C6.01711 18.7508 11.8517 20.4798 17.8487 20.8446C23.8457 21.2094 29.8468 20.2005 35.3948 17.8948C36.0527 17.6316 36.7106 18.4211 36.0527 18.9474Z" fill="#FF9900"/>
<path fill-rule="evenodd" clip-rule="evenodd" d="M37.7631 16.8421C37.2367 16.1842 34.0788 16.4474 32.7631 16.7105C32.2367 16.7105 32.2367 16.3158 32.6315 16.0527C35.1315 14.3421 39.2104 14.8684 39.6052 15.3948C40.1315 16.0527 39.4736 20.1316 37.2367 22.1053C36.842 22.3684 36.4473 22.2369 36.5788 21.8421C37.2367 20.5263 38.2894 17.5 37.7631 16.8421Z" fill="#FF9900"/>
</g>
<defs>
<clipPath id="clip0_485_335">
<rect width="40" height="23.9474" fill="white"/>
</clipPath>
</defs>
</svg>
