<svg width="40" height="40" viewBox="0 0 40 40" fill="none" xmlns="http://www.w3.org/2000/svg">
<circle cx="20" cy="20" r="17.5" fill="#105DFB"/>
<path fill-rule="evenodd" clip-rule="evenodd" d="M8.59497 27.4494V12.1793H15.6541C17.9214 12.1793 19.7595 14.0174 19.7595 16.2848C19.7595 17.7256 19.3165 18.6181 17.692 19.5337C19.6359 20.4195 20.1758 21.6471 20.1758 23.3594C20.1758 25.6757 18.1181 27.4494 15.8017 27.4494H8.59497ZM11.5821 14.707V18.3789H15.0782C15.0782 18.3789 16.7774 18.3789 16.7774 16.543C16.7774 14.707 15.0782 14.707 15.0782 14.707H11.5821ZM11.5821 24.8633V20.8984H15.3321C15.9375 20.8984 17.2071 21.2109 17.2071 23.0859C17.2071 24.4765 15.9571 24.8502 15.3321 24.8633H11.5821Z" fill="white"/>
<path fill-rule="evenodd" clip-rule="evenodd" d="M26.5625 16.3867C24.4141 16.3867 21.2305 17.9297 21.2305 22.0312C21.2305 24.5287 22.5977 27.7344 26.6993 27.7344C29.9805 27.7344 31.4909 25.3255 31.836 24.1211H28.75C28.5938 24.668 27.9883 25.2734 26.6993 25.2734C24.8243 25.2734 24.1602 23.6719 24.0625 22.8711H31.836V22.0312C31.836 17.9297 28.711 16.3867 26.5625 16.3867ZM26.5625 18.7305C24.8125 18.7305 24.1667 20.1758 24.0625 20.8984H28.75C28.75 20.1758 28.3125 18.7305 26.5625 18.7305Z" fill="white"/>
<path d="M22.8321 13.0469V14.9414H30.1954V13.0469H22.8321Z" fill="white"/>
</svg>
