<svg width="32" height="33" viewBox="0 0 32 33" fill="none" xmlns="http://www.w3.org/2000/svg">
<g clip-path="url(#clip0_479_248)">
<path d="M31.9848 16.6814C31.9848 15.3397 31.876 14.3605 31.6403 13.3452H16.3188V19.4012H25.3122C25.131 20.9062 24.1518 23.1727 21.976 24.6957L21.9455 24.8984L26.7898 28.6513L27.1255 28.6848C30.2078 25.838 31.9848 21.6495 31.9848 16.6814Z" fill="#4285F4"/>
<path d="M16.3188 32.6375C20.7248 32.6375 24.4237 31.1869 27.1255 28.6848L21.976 24.6956C20.598 25.6566 18.7485 26.3275 16.3188 26.3275C12.0035 26.3275 8.34085 23.4809 7.03522 19.5463L6.84385 19.5625L1.8066 23.4609L1.74072 23.644C4.42422 28.9748 9.93635 32.6375 16.3188 32.6375Z" fill="#34A853"/>
<path d="M7.03512 19.5463C6.69062 18.5309 6.49125 17.4429 6.49125 16.3188C6.49125 15.1945 6.69063 14.1066 7.017 13.0913L7.00787 12.875L1.9075 8.914L1.74063 8.99338C0.634625 11.2055 0 13.6896 0 16.3188C0 18.9479 0.634625 21.4319 1.74063 23.644L7.03512 19.5463Z" fill="#FBBC05"/>
<path d="M16.3188 6.30987C19.3831 6.30987 21.4501 7.6335 22.6287 8.73962L27.2342 4.24287C24.4057 1.61375 20.7248 0 16.3188 0C9.93635 0 4.42422 3.66262 1.74072 8.99337L7.0171 13.0912C8.34085 9.15662 12.0035 6.30987 16.3188 6.30987Z" fill="#EB4335"/>
</g>
<defs>
<clipPath id="clip0_479_248">
<rect width="32" height="32.75" fill="white"/>
</clipPath>
</defs>
</svg>
