<svg width="32" height="32" viewBox="0 0 32 32" fill="none" xmlns="http://www.w3.org/2000/svg">
<path d="M14.1868 1.50673L3.32011 12.3734C2.84279 12.8491 2.46407 13.4143 2.20565 14.0366C1.94723 14.659 1.81421 15.3262 1.81421 16.0001C1.81421 16.6739 1.94723 17.3412 2.20565 17.9635C2.46407 18.5858 2.84279 19.1511 3.32011 19.6267L14.1868 30.4934C14.6624 30.9707 15.2277 31.3494 15.85 31.6079C16.4723 31.8663 17.1396 31.9993 17.8134 31.9993C18.4873 31.9993 19.1545 31.8663 19.7769 31.6079C20.3992 31.3494 20.9644 30.9707 21.4401 30.4934L25.0668 26.8801L21.4401 23.2534L17.8134 26.8801L6.93345 16.0001L17.8134 5.12006L25.0668 12.3734L17.8134 19.6267L21.4401 23.2534L28.6668 16.0001C29.1441 15.5244 29.5228 14.9592 29.7812 14.3368C30.0397 13.7145 30.1727 13.0473 30.1727 12.3734C30.1727 11.6995 30.0397 11.0323 29.7812 10.4099C29.5228 9.7876 29.1441 9.22239 28.6668 8.74672L21.4134 1.50673C20.9389 1.02981 20.3748 0.651366 19.7536 0.393128C19.1324 0.134891 18.4662 0.00195313 17.7934 0.00195312C17.1207 0.00195313 16.4545 0.134891 15.8333 0.393128C15.2121 0.651366 14.648 1.02981 14.1734 1.50673H14.1868Z" fill="#98CA3F"/>
</svg>
