<svg width="32" height="37" viewBox="0 0 32 37" fill="none" xmlns="http://www.w3.org/2000/svg">
<g clip-path="url(#clip0_479_275)">
<path d="M27.9706 7.16683C27.9454 6.98435 27.7856 6.88336 27.6535 6.87224C27.5216 6.86124 24.7309 6.65438 24.7309 6.65438C24.7309 6.65438 22.7927 4.7302 22.58 4.51722C22.3671 4.30437 21.9514 4.36911 21.79 4.41661C21.7663 4.4236 21.3666 4.54697 20.7054 4.75157C20.058 2.88851 18.9153 1.17643 16.9052 1.17643C16.8497 1.17643 16.7925 1.17868 16.7354 1.18193C16.1637 0.425879 15.4556 0.0974121 14.8439 0.0974121C10.1612 0.0974121 7.92406 5.9512 7.22263 8.92591C5.40306 9.48972 4.11044 9.89056 3.94533 9.94243C2.92968 10.261 2.89756 10.293 2.7642 11.25C2.66383 11.9746 0.00634766 32.5262 0.00634766 32.5262L20.714 36.406L31.9342 33.9788C31.9342 33.9788 27.9953 7.34931 27.9706 7.16683ZM19.5609 5.10554L17.8087 5.64786C17.8093 5.52437 17.8099 5.40288 17.8099 5.27002C17.8099 4.11214 17.6492 3.17985 17.3914 2.4408C18.4271 2.57079 19.1169 3.7493 19.5609 5.10554ZM16.1065 2.67041C16.3945 3.39196 16.5817 4.42748 16.5817 5.82484C16.5817 5.89633 16.5811 5.9617 16.5804 6.02782C15.4409 6.38078 14.2027 6.764 12.9617 7.14846C13.6585 4.45923 14.9646 3.16036 16.1065 2.67041ZM14.7153 1.35341C14.9174 1.35341 15.121 1.42203 15.3158 1.55614C13.8151 2.26232 12.2065 4.04089 11.5272 7.59266L8.66673 8.47857C9.4624 5.76947 11.3518 1.35341 14.7153 1.35341Z" fill="#95BF46"/>
<path d="M27.6535 6.87214C27.5217 6.86114 24.7309 6.65428 24.7309 6.65428C24.7309 6.65428 22.7928 4.7301 22.58 4.51712C22.5004 4.43788 22.393 4.39726 22.2808 4.37976L20.7151 36.4057L31.9342 33.9787C31.9342 33.9787 27.9954 7.34921 27.9706 7.16673C27.9455 6.98425 27.7856 6.88326 27.6535 6.87214Z" fill="#5E8E3E"/>
<path d="M16.9052 13.0719L15.5217 17.1872C15.5217 17.1872 14.3096 16.5403 12.8238 16.5403C10.6455 16.5403 10.5359 17.9073 10.5359 18.2517C10.5359 20.1313 15.4354 20.8515 15.4354 25.254C15.4354 28.7178 13.2385 30.9482 10.2763 30.9482C6.72163 30.9482 4.90381 28.7359 4.90381 28.7359L5.85559 25.5912C5.85559 25.5912 7.72415 27.1954 9.30087 27.1954C10.3311 27.1954 10.7502 26.3843 10.7502 25.7916C10.7502 23.3398 6.73063 23.2305 6.73063 19.2017C6.73063 15.811 9.16438 12.5297 14.0771 12.5297C15.9701 12.5297 16.9052 13.0719 16.9052 13.0719Z" fill="white"/>
</g>
<defs>
<clipPath id="clip0_479_275">
<rect width="32" height="36.4964" fill="white"/>
</clipPath>
</defs>
</svg>
